<?xml version="1.0" encoding="utf-8"?>
<!-- Generator: Adobe Illustrator 21.0.2, SVG Export Plug-In . SVG Version: 6.00 Build 0)  -->
<svg version="1.1" xmlns="http://www.w3.org/2000/svg" xmlns:xlink="http://www.w3.org/1999/xlink" x="0px" y="0px" width="400px"
	 height="400px" viewBox="0 0 400 400" style="enable-background:new 0 0 400 400;" xml:space="preserve">
<style type="text/css">
	.st0{fill:none;stroke:#232323;stroke-width:6;stroke-linecap:round;stroke-linejoin:round;stroke-miterlimit:10;}
	.st1{fill:#FFFFFF;stroke:#232323;stroke-width:6;stroke-miterlimit:10;}
	.st2{fill:none;stroke:#232323;stroke-width:6;stroke-miterlimit:10;}
	.st3{fill:#99C2AD;}
	.st4{fill:#99D8F5;}
	.st5{fill:#D9F0FB;}
	.st6{fill:#FFFFFF;stroke:#1A171B;stroke-width:6;stroke-linecap:round;stroke-linejoin:round;stroke-miterlimit:10;}
	.st7{fill:#FFFFFF;stroke:#232323;stroke-width:6;stroke-linecap:round;stroke-linejoin:round;stroke-miterlimit:10;}
	.st8{fill:#CCECFA;}
	.st9{fill:#B2D1C2;stroke:#1A171B;stroke-width:6;stroke-linecap:round;stroke-linejoin:round;stroke-miterlimit:10;}
	.st10{fill:#80B299;}
	.st11{fill:#B2E2F7;}
	.st12{fill:#8CD3F3;}
	.st13{fill:#FFFFFF;stroke:#231F20;stroke-width:6;stroke-linecap:round;stroke-linejoin:round;stroke-miterlimit:10;}
	.st14{fill:#8FD4F4;stroke:#231F20;stroke-width:6;stroke-linecap:round;stroke-linejoin:round;stroke-miterlimit:10;}
	.st15{fill:none;stroke:#231F20;stroke-width:6;stroke-linecap:round;stroke-linejoin:round;stroke-miterlimit:10;}
	.st16{fill:#99C2AD;stroke:#000000;stroke-width:6;stroke-linecap:round;stroke-linejoin:round;stroke-miterlimit:10;}
	.st17{fill:#B2D1C2;}
	.st18{fill:#B2D1C2;stroke:#232323;stroke-width:6;stroke-linecap:round;stroke-linejoin:round;stroke-miterlimit:10;}
	.st19{fill:none;stroke:#222222;stroke-width:6;stroke-linecap:round;stroke-linejoin:round;stroke-miterlimit:10;}
	.st20{fill:#009EE5;stroke:#232323;stroke-width:6;stroke-linecap:round;stroke-linejoin:round;stroke-miterlimit:10;}
	.st21{fill:#FFFFFF;stroke:#000000;stroke-width:6;stroke-linecap:round;stroke-linejoin:round;stroke-miterlimit:10;}
	.st22{fill:none;stroke:#000000;stroke-width:6;stroke-linecap:round;stroke-linejoin:round;stroke-miterlimit:10;}
	.st23{fill:none;stroke:#000000;stroke-width:6;stroke-miterlimit:10;}
	.st24{fill:#FFFFFF;stroke:#000000;stroke-width:6;stroke-miterlimit:10;}
	.st25{fill:#99C2AD;stroke:#1A171B;stroke-width:6;stroke-linecap:round;stroke-linejoin:round;stroke-miterlimit:10;}
	.st26{fill:none;stroke:#1A171B;stroke-width:6;stroke-linecap:round;stroke-linejoin:round;stroke-miterlimit:10;}
	.st27{fill:#D9F0FB;stroke:#1A171B;stroke-width:6;stroke-miterlimit:10;}
	.st28{fill:#231F20;}
	.st29{fill:none;stroke:#1A171B;stroke-miterlimit:10;}
	.st30{fill:#CCE0D6;stroke:#000000;stroke-width:6;stroke-linecap:round;stroke-linejoin:round;stroke-miterlimit:10;}
	.st31{fill:#BFE7F8;stroke:#000000;stroke-width:6;stroke-linecap:round;stroke-linejoin:round;stroke-miterlimit:10;}
	.st32{fill:#A6DDF6;}
	.st33{fill:#D9F0FB;stroke:#231F20;stroke-width:6;stroke-linecap:round;stroke-linejoin:round;stroke-miterlimit:10;}
	.st34{fill:#D9F0FB;stroke:#1A171B;stroke-width:6;stroke-linecap:round;stroke-linejoin:round;stroke-miterlimit:10;}
	.st35{fill:#D9E8E0;stroke:#000000;stroke-width:6;stroke-linecap:round;stroke-linejoin:round;stroke-miterlimit:10;}
	.st36{fill:#99D8F5;stroke:#000000;stroke-width:6;stroke-linecap:round;stroke-linejoin:round;stroke-miterlimit:10;}
	.st37{fill:none;stroke:#231F20;stroke-width:6;stroke-miterlimit:10;}
	.st38{fill:none;stroke:#282828;stroke-width:6;stroke-linecap:round;stroke-linejoin:round;stroke-miterlimit:10;}
	.st39{fill:#8CBAA3;}
	.st40{fill:#009EE5;}
	.st41{fill:#FFFFFF;}
	.st42{fill:#FFFFFF;stroke:#222222;stroke-width:6;stroke-miterlimit:10;}
	.st43{fill:#1A171B;}
	.st44{fill:#33B1EA;}
	.st45{fill:#66C5EF;}
	.st46{fill:#80CEF2;}
	.st47{fill:#99D8F5;stroke:#232323;stroke-width:6;stroke-linecap:round;stroke-linejoin:round;stroke-miterlimit:10;}
	.st48{fill:#8CBAA3;stroke:#232323;stroke-width:6;stroke-linecap:round;stroke-linejoin:round;stroke-miterlimit:10;}
	.st49{fill:#CCE0D6;}
	.st50{fill:#99D8F5;stroke:#1A171B;stroke-width:6;stroke-linecap:round;stroke-linejoin:round;stroke-miterlimit:10;}
	.st51{fill:#FFFFFF;stroke:#232323;stroke-miterlimit:10;}
	.st52{fill:#8CBAA3;stroke:#1A171B;stroke-width:6;stroke-miterlimit:10;}
	.st53{fill:none;stroke:#222322;stroke-width:6;stroke-linecap:round;stroke-linejoin:round;stroke-miterlimit:10;}
	.st54{fill:none;}
	.st55{fill:#BFD9CC;stroke:#1A171B;stroke-width:6;stroke-linecap:round;stroke-linejoin:round;stroke-miterlimit:10;}
	.st56{fill:#FFFFFF;stroke:#1A171B;stroke-width:6;stroke-miterlimit:10;}
	.st57{fill:none;stroke:#009EE5;stroke-width:6;stroke-miterlimit:10;}
	.st58{fill:none;stroke:#8CBAA3;stroke-width:6;stroke-linecap:round;stroke-linejoin:round;stroke-miterlimit:10;}
	.st59{fill:none;stroke:#1E1E1E;stroke-width:5.6618;stroke-linecap:round;stroke-linejoin:round;stroke-miterlimit:10;}
	.st60{fill:none;stroke:#1E1E1E;stroke-width:6.0966;stroke-linecap:round;stroke-linejoin:round;stroke-miterlimit:10;}
	.st61{fill:none;stroke:#1E1E1E;stroke-width:6;stroke-linecap:round;stroke-linejoin:round;stroke-miterlimit:10;}
	.st62{fill:#87B79F;stroke:#1E1E1E;stroke-width:6;stroke-linecap:round;stroke-linejoin:round;stroke-miterlimit:10;}
	.st63{fill:#FFFFFF;stroke:#282828;stroke-width:6;stroke-linecap:round;stroke-linejoin:round;stroke-miterlimit:10;}
	.st64{fill:none;stroke:#232323;stroke-width:5;stroke-linecap:round;stroke-linejoin:round;stroke-miterlimit:10;}
	.st65{fill:url(#SVGID_1_);stroke:#231F20;stroke-width:6;stroke-miterlimit:10;}
	.st66{fill:#8CBAA3;stroke:#231F20;stroke-width:6;stroke-miterlimit:10;}
	.st67{fill:#009FE8;}
	.st68{fill:#232323;}
	.st69{fill:#8CBAA3;stroke:#1E1E1E;stroke-width:6;stroke-linecap:round;stroke-linejoin:round;stroke-miterlimit:10;}
	.st70{fill:none;stroke:#009EE5;stroke-width:6;stroke-linecap:round;stroke-linejoin:round;stroke-miterlimit:10;}
	.st71{fill:none;stroke:#232323;stroke-width:4.2836;stroke-linecap:round;stroke-linejoin:round;stroke-miterlimit:10;}
</style>
<g id="Layer_1">
	<rect x="94.4" y="170.7" class="st39" width="96.1" height="130.1"/>
	<path class="st0" d="M189.6,155.4c0-11.1-9-20.1-20.1-20.1c-2.4,0-4.8,0.5-6.9,1.3c-0.5-8.1-7.2-14.4-15.4-14.4
		c-8.2,0-14.8,6.3-15.4,14.3c0,0-0.1,0-0.1,0c-5.4-4.9-12.6-8-20.5-8c-16.9,0-30.5,13.7-30.5,30.5c0,0.3,0,0.5,0,0.8h-0.1v65.6
		c0,3.6,2.9,6.5,6.5,6.5c3.6,0,6.5-2.9,6.5-6.5v67.1c0,4.8,3.9,8.7,8.7,8.7h78.6c4.8,0,8.7-3.9,8.7-8.7V155.4"/>
	<line class="st0" x1="93.5" y1="225.3" x2="93.5" y2="181.8"/>
	<line class="st0" x1="189" y1="167.6" x2="110.6" y2="167.6"/>
	<line class="st0" x1="162" y1="201.5" x2="162" y2="270.3"/>
	<line class="st0" x1="139.7" y1="255.5" x2="139.7" y2="270.3"/>
	<line class="st0" x1="139.7" y1="239.3" x2="139.7" y2="255.5"/>
	<line class="st0" x1="139.7" y1="201.5" x2="139.7" y2="239.3"/>
	<line class="st0" x1="117.4" y1="238.7" x2="117.4" y2="270.3"/>
	<line class="st0" x1="117.4" y1="221" x2="117.4" y2="238.7"/>
	<line class="st0" x1="117.4" y1="201.5" x2="117.4" y2="221"/>
	<path class="st0" d="M80.4,178.2h-8.3c-4.8,0-8.7,3.9-8.7,8.7v54.9c0,4.8,3.9,8.7,8.7,8.7h21.3"/>
	<rect x="237.5" y="170.7" class="st39" width="96.1" height="130.1"/>
	<path class="st0" d="M332.7,155.4c0-11.1-9-20.1-20.1-20.1c-2.4,0-4.8,0.5-6.9,1.3c-0.5-8.1-7.2-14.4-15.4-14.4
		c-8.2,0-14.8,6.3-15.4,14.3c0,0-0.1,0-0.1,0c-5.4-4.9-12.6-8-20.5-8c-16.9,0-30.5,13.7-30.5,30.5c0,0.3,0,0.5,0,0.8h-0.1v65.6
		c0,3.6,2.9,6.5,6.5,6.5c3.6,0,6.5-2.9,6.5-6.5v67.1c0,4.8,3.9,8.7,8.7,8.7H324c4.8,0,8.7-3.9,8.7-8.7V155.4"/>
	<line class="st0" x1="236.6" y1="225.3" x2="236.6" y2="181.8"/>
	<line class="st0" x1="332.1" y1="167.6" x2="253.7" y2="167.6"/>
	<line class="st0" x1="305.1" y1="201.5" x2="305.1" y2="270.3"/>
	<line class="st0" x1="282.8" y1="255.5" x2="282.8" y2="270.3"/>
	<line class="st0" x1="282.8" y1="239.3" x2="282.8" y2="255.5"/>
	<line class="st0" x1="282.8" y1="201.5" x2="282.8" y2="239.3"/>
	<line class="st0" x1="260.5" y1="238.7" x2="260.5" y2="270.3"/>
	<line class="st0" x1="260.5" y1="221" x2="260.5" y2="238.7"/>
	<line class="st0" x1="260.5" y1="201.5" x2="260.5" y2="221"/>
	<path class="st0" d="M223.5,178.2h-8.3c-4.8,0-8.7,3.9-8.7,8.7v54.9c0,4.8,3.9,8.7,8.7,8.7h21.3"/>
	<line class="st0" x1="336" y1="95.4" x2="63.5" y2="301.4"/>
</g>
<g id="Capa_2">
</g>
</svg>
