<?xml version="1.0" encoding="utf-8"?>
<!-- Generator: Adobe Illustrator 21.0.2, SVG Export Plug-In . SVG Version: 6.00 Build 0)  -->
<svg version="1.1" id="Layer_1" xmlns="http://www.w3.org/2000/svg" xmlns:xlink="http://www.w3.org/1999/xlink" x="0px" y="0px"
	 width="400px" height="400px" viewBox="0 0 400 400" style="enable-background:new 0 0 400 400;" xml:space="preserve">
<style type="text/css">
	.st0{fill:#8CBAA3;}
	.st1{fill:#009EE5;}
	.st2{fill:none;stroke:#232323;stroke-width:6;stroke-linecap:round;stroke-linejoin:round;stroke-miterlimit:10;}
	.st3{fill:#8CBAA3;stroke:#232323;stroke-width:6;stroke-linecap:round;stroke-linejoin:round;stroke-miterlimit:10;}
	.st4{fill:#FFFFFF;stroke:#232323;stroke-width:6;stroke-linecap:round;stroke-linejoin:round;stroke-miterlimit:10;}
	.st5{fill:#90B9A5;}
	.st6{fill:#0093D2;}
	.st7{fill:none;stroke:#222222;stroke-width:6;stroke-linecap:round;stroke-linejoin:round;stroke-miterlimit:10;}
	.st8{fill:none;stroke:#8AB9A1;stroke-width:6;stroke-linecap:round;stroke-linejoin:round;stroke-miterlimit:10;}
	.st9{fill:none;stroke:#009EE5;stroke-width:6;stroke-linecap:round;stroke-linejoin:round;stroke-miterlimit:10;}
	.st10{fill:none;stroke:#1E1E1E;stroke-width:6;stroke-linecap:round;stroke-linejoin:round;stroke-miterlimit:10;}
	.st11{fill:none;stroke:#8CBAA3;stroke-width:6;stroke-linecap:round;stroke-linejoin:round;stroke-miterlimit:10;}
	
		.st12{fill:none;stroke:#8CBAA3;stroke-width:6;stroke-linecap:round;stroke-linejoin:round;stroke-miterlimit:10;stroke-dasharray:12;}
	.st13{fill:none;stroke:#231F20;stroke-width:6;stroke-linecap:round;stroke-linejoin:round;stroke-miterlimit:10;}
	.st14{fill:#FFFFFF;}
	.st15{fill:none;stroke:#A7A5A6;stroke-width:6;stroke-linecap:round;stroke-linejoin:round;stroke-miterlimit:10;}
	.st16{stroke:#1D1D1B;stroke-width:2;stroke-miterlimit:10;}
	.st17{fill:#009EE5;stroke:#232323;stroke-width:6;stroke-linecap:round;stroke-linejoin:round;stroke-miterlimit:10;}
	.st18{fill:none;stroke:#B2D1C2;stroke-width:6;stroke-linecap:round;stroke-linejoin:round;stroke-miterlimit:10;}
	.st19{fill:#8CBAA3;stroke:#1E1E1E;stroke-width:6;stroke-linecap:round;stroke-linejoin:round;stroke-miterlimit:10;}
	.st20{fill:#B2D1C2;}
	.st21{fill:#231F20;stroke:#000000;stroke-width:2.2677;stroke-miterlimit:10;}
	.st22{fill:#232323;}
	.st23{fill:#8CBAA3;stroke:#232323;stroke-width:4;stroke-linecap:round;stroke-linejoin:round;stroke-miterlimit:10;}
	.st24{fill:none;stroke:#232323;stroke-width:4.2836;stroke-linecap:round;stroke-linejoin:round;stroke-miterlimit:10;}
	
		.st25{fill:none;stroke:#009EE5;stroke-width:6;stroke-linecap:round;stroke-linejoin:round;stroke-miterlimit:10;stroke-dasharray:12,12;}
	.st26{fill:#B2E2F7;}
	
		.st27{fill:none;stroke:#232323;stroke-width:6;stroke-linecap:round;stroke-linejoin:round;stroke-miterlimit:10;stroke-dasharray:12,12;}
</style>
<g id="Layer_2">
</g>
<g>
	<path class="st1" d="M125.7,181.8c3.2-5.7,7.8-10.5,13.5-14c8.4-5.1,16.4-6.9,26-4.8l20.4-26.2c-30.5,0-40.3-3.1-59.9,8.7
		c-10.9,6.6-19.4,16.1-24.7,27.3L125.7,181.8z"/>
	<path class="st10" d="M217.9,163.1c7.8-1,14.6,3.9,14.6,11.2c0,7.6-5.4,13.4-14.1,10.9"/>
	<path class="st10" d="M191.7,163.1c7.8-1,14.6,3.9,14.6,11.2c0,6.3-3.8,11.5-10.1,11.5"/>
	<polygon class="st0" points="213.7,66.4 202,70.1 194.2,78.6 194.4,83.5 208.5,86.1 221.9,86.2 228.7,83.3 231.9,78.9 233.1,74.3 
		224,67.7 	"/>
	<path class="st10" d="M198.7,126.1c-5.9-2.4-10.3-7.1-12.4-12.7"/>
	<path class="st10" d="M187.9,94.1l6-14.9c4.5-11.3,17.3-16.7,28.6-12.2c11.3,4.5,16.7,17.3,12.2,28.6l-7.4,18.2
		c-2.2,5.4-6.4,9.7-11.8,12s-11.4,2.3-16.8,0.2l0,0"/>
	<path class="st10" d="M234.5,78.8c0,0-6.3,12.4-42.1,4.1"/>
	<path class="st10" d="M187.8,94.2c-4.1,10.2-15,15.6-25.4,13.2"/>
	<path class="st10" d="M192.5,82.7c-4.1,10.2-15,15.6-25.4,13.2"/>
	<g>
		<path class="st10" d="M223.7,139.6c6.3,12.1,17.7,19.5,30.7,20.6c10.1,0.8,19.8-2.3,27.6-8.9c4.4-3.8,10.7-4,15.4-1.1
			c1.1,0.7,2.1,1.5,3,2.6c4.7,5.5,4,13.7-1.5,18.3c-13,11-29.5,16.3-46.5,15c-7.4-0.6-14.6-2.5-21.2-5.5"/>
	</g>
	<path class="st10" d="M191.5,260.3l-6.1,21.9c-1.8,6.5-4.7,10.5-4.7,10.5c-2.5,4.8-9.4,9.8-13.6,11.4l-44.7,16.5
		c-2.3,0.8-4.6,1-6.8,0.7c-4.9-0.7-9.2-4-11-8.9c-2.7-7.2,1-15.2,8.2-17.8l38.4-14.2c2.9-1.1,5.1-3.4,6-6.4l8-57.6
		c0.1-0.5,0.1-1,0.1-1.5l0.1-52c-8-1.3-17.3,0-24.6,3.8c-8.9,4.7-15.5,12.6-18.5,22.2c-1.7,5.6-6.9,9.1-12.4,9.1
		c-1.3,0-2.6-0.2-3.9-0.6c-6.9-2.1-10.7-9.4-8.5-16.3c5.1-16.3,16.2-29.6,31.3-37.5c11.2-5.9,16.3-7,35.9-7h21.3"/>
	<path class="st10" d="M213.6,251.4l12.8,10.8c3.6,3,4.7,8,2.7,12.2l-18.9,40.2c-3.8,6.1-1.9,14.1,4.2,17.9c2.1,1.3,4.5,2,6.9,2
		c4.3,0,8.6-2.2,11.1-6.1l27.1-54.8c3.2-5.2,2.7-12.3-1.2-17.6l-28-36.6c-1.9-2.4-2.9-5.4-2.9-8.5v-26.4"/>
	<line class="st10" x1="244.9" y1="238.8" x2="179" y2="265.3"/>
</g>
</svg>
