<?xml version="1.0" encoding="utf-8"?>
<!-- Generator: Adobe Illustrator 21.0.2, SVG Export Plug-In . SVG Version: 6.00 Build 0)  -->
<svg version="1.1" id="Layer_1" xmlns="http://www.w3.org/2000/svg" xmlns:xlink="http://www.w3.org/1999/xlink" x="0px" y="0px"
	 width="400px" height="400px" viewBox="0 0 400 400" style="enable-background:new 0 0 400 400;" xml:space="preserve">
<style type="text/css">
	.st0{opacity:0.5;fill:#8AB9A1;}
	.st1{fill:#009EE5;}
	.st2{fill:#8CBAA3;}
	.st3{fill:none;stroke:#232323;stroke-width:6;stroke-linecap:round;stroke-linejoin:round;stroke-miterlimit:10;}
	.st4{fill:#8CBAA3;stroke:#232323;stroke-width:6;stroke-linecap:round;stroke-linejoin:round;stroke-miterlimit:10;}
	.st5{fill:none;stroke:#1E1E1E;stroke-width:6;stroke-linecap:round;stroke-linejoin:round;stroke-miterlimit:10;}
	.st6{fill:none;stroke:#1E1E1E;stroke-width:5.9319;stroke-linecap:round;stroke-linejoin:round;stroke-miterlimit:10;}
	.st7{fill:#FFFFFF;stroke:#1E1E1E;stroke-width:6;stroke-linecap:round;stroke-linejoin:round;stroke-miterlimit:10;}
	.st8{fill:#8CBAA3;stroke:#1E1E1E;stroke-width:6;stroke-linecap:round;stroke-linejoin:round;stroke-miterlimit:10;}
	.st9{fill:#009EE5;stroke:#1E1E1E;stroke-width:6;stroke-linecap:round;stroke-linejoin:round;stroke-miterlimit:10;}
	.st10{fill:#232323;}
	.st11{fill:none;stroke:#8AB9A1;stroke-width:6;stroke-linecap:round;stroke-linejoin:round;stroke-miterlimit:10;}
	.st12{fill:none;stroke:#1E1E1E;stroke-width:5.6618;stroke-linecap:round;stroke-linejoin:round;stroke-miterlimit:10;}
	.st13{fill:none;stroke:#1E1E1E;stroke-width:6.0966;stroke-linecap:round;stroke-linejoin:round;stroke-miterlimit:10;}
	.st14{fill:#FFFFFF;}
	.st15{fill:none;stroke:#231F20;stroke-width:6;stroke-linecap:round;stroke-linejoin:round;stroke-miterlimit:10;}
	.st16{fill:url(#SVGID_1_);stroke:#231F20;stroke-width:6;stroke-miterlimit:10;}
	.st17{fill:#8CBAA3;stroke:#231F20;stroke-width:6;stroke-miterlimit:10;}
	.st18{fill:#CCE0D6;}
	.st19{fill:none;stroke:#222222;stroke-width:6;stroke-linecap:round;stroke-linejoin:round;stroke-miterlimit:10;}
	.st20{fill:#FFFFFF;stroke:#232323;stroke-width:6;stroke-linecap:round;stroke-linejoin:round;stroke-miterlimit:10;}
	.st21{fill:none;stroke:#232323;stroke-width:5;stroke-linecap:round;stroke-linejoin:round;stroke-miterlimit:10;}
	.st22{fill:url(#SVGID_2_);stroke:#231F20;stroke-width:6;stroke-miterlimit:10;}
	.st23{fill:none;stroke:#009EE5;stroke-width:6;stroke-linecap:round;stroke-linejoin:round;stroke-miterlimit:10;}
	.st24{fill:#B2E2F7;}
	.st25{fill:none;stroke:#282828;stroke-width:6;stroke-linecap:round;stroke-linejoin:round;stroke-miterlimit:10;}
	.st26{fill:#009EE5;stroke:#232323;stroke-width:6;stroke-linecap:round;stroke-linejoin:round;stroke-miterlimit:10;}
	.st27{fill:none;stroke:#282828;stroke-width:5;stroke-linecap:round;stroke-linejoin:round;stroke-miterlimit:10;}
	.st28{fill:#FFFFFF;stroke:#282828;stroke-width:6;stroke-linecap:round;stroke-linejoin:round;stroke-miterlimit:10;}
	.st29{fill:none;stroke:#252122;stroke-width:6;stroke-linecap:round;stroke-linejoin:round;stroke-miterlimit:10;}
	.st30{fill:#99D8F5;}
	.st31{fill:none;stroke:#009EE5;stroke-width:6;stroke-miterlimit:10;}
	.st32{fill:#8AB9A1;stroke:#232323;stroke-width:6;stroke-linecap:round;stroke-linejoin:round;stroke-miterlimit:10;}
</style>
<g>
	<g>
		<path class="st3" d="M194.4,260.8v30.4l0.1,11.8c0,7.9-9.4,14.3-17.3,14.3c-7.9,0-16.3-6.4-16.3-14.3v-20.9v-62.4"/>
		<path class="st3" d="M238.1,250v41.3l0.1,11.8c0,7.9-8.4,14.3-16.3,14.3c-7.9,0-17.3-6.4-17.3-14.3v-20.9v-21.3"/>
	</g>
	<path class="st3" d="M204.6,260.1c0-3.4-1.7-6.1-5.1-6.1l0,0c-3.4,0-5.1,2.7-5.1,6.1"/>
	<path class="st1" d="M140.8,196.8c-2.1-6.2-2.1-16.2-0.9-22.8c1.8-9.5,4-14.3,21.4-30.7l-0.2-27.3c-21.9,7.3-42.4,30.6-46.7,53.1
		c-2.4,12.5-1,25.2,3.8,36.7L140.8,196.8z"/>
	<g>
		<path class="st3" d="M161.3,144.1c-22.1,16.2-23.3,45.7-19.7,58.3c1.6,5.6,1.4,11.3-2.6,15.2c-0.9,0.9-2,1.7-3.2,2.3
			c-6.4,3.2-14,0.5-17.5-5.8c-6.6-12.2-7-31.1-3.2-48.3c4.4-20,19.1-41.8,44.4-49.4"/>
	</g>
	<path class="st2" d="M259.2,196.8c2.1-6.2,2.1-16.2,0.9-22.8c-1.8-9.5-4-14.3-21.4-30.7l0.2-27.3c21.9,7.3,42.4,30.6,46.7,53.1
		c2.4,12.5,1,25.2-3.8,36.7L259.2,196.8z"/>
	<g>
		<path class="st3" d="M238.7,144.1c22.1,16.2,23.3,45.7,19.7,58.3c-1.6,5.6-1.4,11.3,2.6,15.2c0.9,0.9,2,1.7,3.2,2.3
			c6.4,3.2,14,0.5,17.5-5.8c6.6-12.2,7-31.1,3.2-48.3c-4.4-20-19.1-41.8-44.4-49.4"/>
	</g>
	<path class="st3" d="M231.9,151.3c0,0,35.6,37.2,0.3,76.3"/>
	<path class="st3" d="M168.2,151.2c0,0-30.2,31.5-7.2,67.2"/>
	<path class="st3" d="M221.7,231c0,0-23.7,17-45.9-0.6"/>
</g>
<g>
	<path class="st2" d="M180.7,105.6c-0.7,0-1.3-0.2-1.8-0.7c-0.6-0.5-1-1.3-1-2.2l0-0.5c0-11.9,9.7-21.6,21.7-21.6
		c5,0,9.9,1.8,13.8,5c1,0.8,1.3,2.2,0.7,3.4c-2.1,4.3-9.3,12.2-32.8,16.4C181,105.6,180.9,105.6,180.7,105.6z"/>
	<path class="st3" d="M177.5,106.9l0-4.5c0-12,9.8-21.8,21.8-21.7c12,0,21.8,9.8,21.7,21.8l0,3.2l0-0.6"/>
	<path class="st3" d="M214.7,87.1c0,0-1.3,13.8-37.2,19.3"/>
	<path class="st3" d="M177.7,106.5c0,0-9.7,24.9,7.3,35.8c9.4,6,22.7,4.3,29.4,0c17.3-11,6.7-35.8,6.7-35.8"/>
</g>
</svg>
