<?xml version="1.0" encoding="utf-8"?>
<!-- Generator: Adobe Illustrator 21.0.2, SVG Export Plug-In . SVG Version: 6.00 Build 0)  -->
<svg version="1.1" xmlns="http://www.w3.org/2000/svg" xmlns:xlink="http://www.w3.org/1999/xlink" x="0px" y="0px" width="396.6px"
	 height="396.6px" viewBox="0 0 396.6 396.6" style="enable-background:new 0 0 396.6 396.6;" xml:space="preserve">
<style type="text/css">
	.st0{fill:none;stroke:#232323;stroke-width:6;stroke-linecap:round;stroke-linejoin:round;stroke-miterlimit:10;}
	.st1{fill:#FFFFFF;stroke:#232323;stroke-width:6;stroke-miterlimit:10;}
	.st2{fill:none;stroke:#232323;stroke-width:6;stroke-miterlimit:10;}
	.st3{fill:#99C2AD;}
	.st4{fill:#99D8F5;}
	.st5{fill:#D9F0FB;}
	.st6{fill:#FFFFFF;stroke:#1A171B;stroke-width:6;stroke-linecap:round;stroke-linejoin:round;stroke-miterlimit:10;}
	.st7{fill:#FFFFFF;stroke:#232323;stroke-width:6;stroke-linecap:round;stroke-linejoin:round;stroke-miterlimit:10;}
	.st8{fill:#CCECFA;}
	.st9{fill:#B2D1C2;stroke:#1A171B;stroke-width:6;stroke-linecap:round;stroke-linejoin:round;stroke-miterlimit:10;}
	.st10{fill:#80B299;}
	.st11{fill:#B2E2F7;}
	.st12{fill:#8CD3F3;}
	.st13{fill:#FFFFFF;stroke:#231F20;stroke-width:6;stroke-linecap:round;stroke-linejoin:round;stroke-miterlimit:10;}
	.st14{fill:#8FD4F4;stroke:#231F20;stroke-width:6;stroke-linecap:round;stroke-linejoin:round;stroke-miterlimit:10;}
	.st15{fill:none;stroke:#231F20;stroke-width:6;stroke-linecap:round;stroke-linejoin:round;stroke-miterlimit:10;}
	.st16{fill:#99C2AD;stroke:#000000;stroke-width:6;stroke-linecap:round;stroke-linejoin:round;stroke-miterlimit:10;}
	.st17{fill:#B2D1C2;}
	.st18{fill:#B2D1C2;stroke:#232323;stroke-width:6;stroke-linecap:round;stroke-linejoin:round;stroke-miterlimit:10;}
	.st19{fill:none;stroke:#222222;stroke-width:6;stroke-linecap:round;stroke-linejoin:round;stroke-miterlimit:10;}
	.st20{fill:#009EE5;stroke:#232323;stroke-width:6;stroke-linecap:round;stroke-linejoin:round;stroke-miterlimit:10;}
	.st21{fill:#FFFFFF;stroke:#000000;stroke-width:6;stroke-linecap:round;stroke-linejoin:round;stroke-miterlimit:10;}
	.st22{fill:none;stroke:#000000;stroke-width:6;stroke-linecap:round;stroke-linejoin:round;stroke-miterlimit:10;}
	.st23{fill:none;stroke:#000000;stroke-width:6;stroke-miterlimit:10;}
	.st24{fill:#FFFFFF;stroke:#000000;stroke-width:6;stroke-miterlimit:10;}
	.st25{fill:#99C2AD;stroke:#1A171B;stroke-width:6;stroke-linecap:round;stroke-linejoin:round;stroke-miterlimit:10;}
	.st26{fill:none;stroke:#1A171B;stroke-width:6;stroke-linecap:round;stroke-linejoin:round;stroke-miterlimit:10;}
	.st27{fill:#D9F0FB;stroke:#1A171B;stroke-width:6;stroke-miterlimit:10;}
	.st28{fill:#231F20;}
	.st29{fill:none;stroke:#1A171B;stroke-miterlimit:10;}
	.st30{fill:#CCE0D6;stroke:#000000;stroke-width:6;stroke-linecap:round;stroke-linejoin:round;stroke-miterlimit:10;}
	.st31{fill:#BFE7F8;stroke:#000000;stroke-width:6;stroke-linecap:round;stroke-linejoin:round;stroke-miterlimit:10;}
	.st32{fill:#A6DDF6;}
	.st33{fill:#D9F0FB;stroke:#231F20;stroke-width:6;stroke-linecap:round;stroke-linejoin:round;stroke-miterlimit:10;}
	.st34{fill:#D9F0FB;stroke:#1A171B;stroke-width:6;stroke-linecap:round;stroke-linejoin:round;stroke-miterlimit:10;}
	.st35{fill:#D9E8E0;stroke:#000000;stroke-width:6;stroke-linecap:round;stroke-linejoin:round;stroke-miterlimit:10;}
	.st36{fill:#99D8F5;stroke:#000000;stroke-width:6;stroke-linecap:round;stroke-linejoin:round;stroke-miterlimit:10;}
	.st37{fill:none;stroke:#231F20;stroke-width:6;stroke-miterlimit:10;}
	.st38{fill:none;stroke:#282828;stroke-width:6;stroke-linecap:round;stroke-linejoin:round;stroke-miterlimit:10;}
	.st39{fill:#8CBAA3;}
	.st40{fill:#009EE5;}
	.st41{fill:#FFFFFF;}
	.st42{fill:#FFFFFF;stroke:#222222;stroke-width:6;stroke-miterlimit:10;}
	.st43{fill:#1A171B;}
	.st44{fill:#33B1EA;}
	.st45{fill:#66C5EF;}
	.st46{fill:#80CEF2;}
	.st47{fill:#99D8F5;stroke:#232323;stroke-width:6;stroke-linecap:round;stroke-linejoin:round;stroke-miterlimit:10;}
	.st48{fill:#8CBAA3;stroke:#232323;stroke-width:6;stroke-linecap:round;stroke-linejoin:round;stroke-miterlimit:10;}
	.st49{fill:#CCE0D6;}
	.st50{fill:#99D8F5;stroke:#1A171B;stroke-width:6;stroke-linecap:round;stroke-linejoin:round;stroke-miterlimit:10;}
	.st51{fill:#FFFFFF;stroke:#232323;stroke-miterlimit:10;}
	.st52{fill:#8CBAA3;stroke:#1A171B;stroke-width:6;stroke-miterlimit:10;}
	.st53{fill:none;stroke:#222322;stroke-width:6;stroke-linecap:round;stroke-linejoin:round;stroke-miterlimit:10;}
	.st54{fill:none;}
	.st55{fill:#BFD9CC;stroke:#1A171B;stroke-width:6;stroke-linecap:round;stroke-linejoin:round;stroke-miterlimit:10;}
	.st56{fill:#FFFFFF;stroke:#1A171B;stroke-width:6;stroke-miterlimit:10;}
	.st57{fill:none;stroke:#009EE5;stroke-width:6;stroke-miterlimit:10;}
	.st58{fill:none;stroke:#8CBAA3;stroke-width:6;stroke-linecap:round;stroke-linejoin:round;stroke-miterlimit:10;}
	.st59{fill:none;stroke:#1E1E1E;stroke-width:5.6618;stroke-linecap:round;stroke-linejoin:round;stroke-miterlimit:10;}
	.st60{fill:none;stroke:#1E1E1E;stroke-width:6.0966;stroke-linecap:round;stroke-linejoin:round;stroke-miterlimit:10;}
	.st61{fill:none;stroke:#1E1E1E;stroke-width:6;stroke-linecap:round;stroke-linejoin:round;stroke-miterlimit:10;}
	.st62{fill:#87B79F;stroke:#1E1E1E;stroke-width:6;stroke-linecap:round;stroke-linejoin:round;stroke-miterlimit:10;}
	.st63{fill:#FFFFFF;stroke:#282828;stroke-width:6;stroke-linecap:round;stroke-linejoin:round;stroke-miterlimit:10;}
	.st64{fill:none;stroke:#232323;stroke-width:5;stroke-linecap:round;stroke-linejoin:round;stroke-miterlimit:10;}
	.st65{fill:url(#SVGID_1_);stroke:#231F20;stroke-width:6;stroke-miterlimit:10;}
	.st66{fill:#8CBAA3;stroke:#231F20;stroke-width:6;stroke-miterlimit:10;}
	.st67{fill:#009FE8;}
	.st68{fill:#232323;}
	.st69{fill:#8CBAA3;stroke:#1E1E1E;stroke-width:6;stroke-linecap:round;stroke-linejoin:round;stroke-miterlimit:10;}
	.st70{fill:none;stroke:#009EE5;stroke-width:6;stroke-linecap:round;stroke-linejoin:round;stroke-miterlimit:10;}
	.st71{fill:none;stroke:#232323;stroke-width:4.2836;stroke-linecap:round;stroke-linejoin:round;stroke-miterlimit:10;}
</style>
<g id="Layer_1">
	<g>
		<path class="st11" d="M133.4,323.7v-18.6c-3.9,0-16.8,0-19.5,0v17.6"/>
		<path class="st26" d="M113.9,308.2v13.6c0,1,0.8,1.8,1.8,1.8h16c1,0,1.8-0.8,1.8-1.8v-13.6"/>
		<polyline class="st26" points="113.9,308.2 112.4,293.2 135.3,293.2 133.4,308.2 		"/>
	</g>
	<g>
		<path class="st11" d="M171.3,323.7v-18.6c-3.9,0-16.8,0-19.5,0v17.6"/>
		<path class="st26" d="M151.7,308.2v13.6c0,1,0.8,1.8,1.8,1.8h16c1,0,1.8-0.8,1.8-1.8v-13.6"/>
		<polyline class="st26" points="151.7,308.2 150.3,293.2 173.2,293.2 171.3,308.2 		"/>
	</g>
	<g>
		<path class="st11" d="M209.1,323.7v-18.6c-3.9,0-16.8,0-19.5,0v17.6"/>
		<path class="st26" d="M189.6,308.2v13.6c0,1,0.8,1.8,1.8,1.8h16c1,0,1.8-0.8,1.8-1.8v-13.6"/>
		<polyline class="st26" points="189.6,308.2 188.2,293.2 211.1,293.2 209.2,308.2 		"/>
	</g>
	<g>
		<path class="st11" d="M247,323.7v-18.6c-3.9,0-16.8,0-19.5,0v17.6"/>
		<path class="st26" d="M227.5,308.2v13.6c0,1,0.8,1.8,1.8,1.8h16c1,0,1.8-0.8,1.8-1.8v-13.6"/>
		<polyline class="st26" points="227.5,308.2 226.1,293.2 249,293.2 247,308.2 		"/>
	</g>
	<g>
		<path class="st11" d="M284.9,323.7v-18.6c-3.9,0-16.8,0-19.5,0v17.6"/>
		<path class="st26" d="M265.4,308.2v13.6c0,1,0.8,1.8,1.8,1.8h16c1,0,1.8-0.8,1.8-1.8v-13.6"/>
		<polyline class="st26" points="265.4,308.2 264,293.2 286.9,293.2 284.9,308.2 		"/>
	</g>
	<polygon class="st53" points="197.8,63.8 61.7,334.3 334.3,334.3 	"/>
	<line class="st53" x1="93" y1="279.8" x2="306.8" y2="279.8"/>
	<line class="st53" x1="116.3" y1="225.8" x2="277" y2="225.8"/>
	<line class="st53" x1="143.4" y1="171.8" x2="252.3" y2="171.8"/>
	<line class="st53" x1="171.6" y1="117.8" x2="223.3" y2="117.8"/>
	<path class="st11" d="M180.5,242.9c-11.1-3.3-29.6-3.9-43,0c-6,1.8-19.6,6.9-18.5,16.7c0,0,0,6.3,5.5,6.3c8.7,0,60.2,0,68.9,0
		c5.6,0,5.6-6.3,5.6-6.3C200,249.8,186.7,244.7,180.5,242.9z"/>
	<path class="st0" d="M180.5,243c-11.1-3.3-29.6-3.9-43,0c-6,1.8-19.6,6.9-18.5,16.7c0,0,0,6.3,5.5,6.3c8.7,0,60.2,0,68.9,0
		c5.6,0,5.6-6.3,5.6-6.3C200,249.9,186.7,244.9,180.5,243z"/>
	<path class="st7" d="M167,241.6c0,0,4.1,4,4.8,7.7"/>
	<path class="st7" d="M146.7,241c0,0,4.1,4.5,4.8,8.8"/>
	<path class="st3" d="M152.1,195.2c0,0-1.1,14-7.1,17.8l5.2,4.9c0,0,9.6-8.8,19.1-6l0.5-3.8l-15.4-13.1L152.1,195.2z"/>
	<path class="st21" d="M156.6,194.4c0,0-9.4,1.6-9.5-7.1c-0.1-7.7,10.3-10.2,14.5-2.6c0,0,6.6-5,14.3-0.8c7.7,4.2,7.4,14.3,6.4,16.1
		c0,0,9.6,5.6,2.3,13.2c-4.4,4.6-13.1,1.7-13.2-4.4c0,0-2.7-0.5-3.9-2.5c-1.2-2-0.3-4.4-0.3-4.4s-3.9,2.1-7.6-1.2
		C156.5,198,156.6,194.4,156.6,194.4z"/>
	<path class="st22" d="M169.3,212c-8.4-3.5-18.8,5.7-18.8,5.7l-5-4.6c7.8-6.9,6.7-17.9,6.7-17.9"/>
	<g>
		<path class="st3" d="M244.8,185.5c4.1,11.1-1.8,23.7-13.4,28.6c-11.7,4.9-24.8,0.1-29.8-10.6L244.8,185.5z"/>
	</g>
	<g>
		<path class="st22" d="M232.4,215.5c13.2-5.5,19.7-20.1,14.9-33.1l-48.9,20.4C204.2,215.3,219.2,221,232.4,215.5z"/>
	</g>
	<path class="st43" d="M235.7,193c0,0,2.2,1.9,4.1,1.2c1-0.4,1.5-2.4-0.2-2.8C238.8,191.2,237.7,191.5,235.7,193z"/>
	<path class="st43" d="M233.7,199.3c0,0,0.4,2.9,2.2,3.6c1,0.4,2.7-0.8,1.7-2.3C237.2,199.9,236.2,199.4,233.7,199.3z"/>
	<path class="st43" d="M215.3,201.4c0,0-0.2,2.9-2.1,3.8c-1,0.5-2.8-0.6-1.8-2.1C211.8,202.3,212.8,201.8,215.3,201.4z"/>
	<path class="st43" d="M221.1,204.4c0,0,1.8,2.3,1,4.1c-0.4,1-2.5,1.3-2.8-0.4C219.1,207.3,219.5,206.2,221.1,204.4z"/>
	<path class="st43" d="M228.4,203.6c0,0-1.1,2.7,0.1,4.2c0.7,0.8,2.8,0.6,2.6-1.2C231.1,205.8,230.4,204.9,228.4,203.6z"/>
	<g>
		<rect x="183.5" y="142.6" class="st32" width="26.4" height="17.7"/>
		<line class="st33" x1="178.2" y1="133.1" x2="214.2" y2="133.1"/>
		<path class="st15" d="M209.9,133.4v25.7c0,0.8-0.6,1.4-1.4,1.4h-23.7c-0.8,0-1.4-0.6-1.4-1.4v-25.7"/>
		<path class="st28" d="M186.2,162.3v1.8c0,0.6,0.5,1.1,1.1,1.1H206c0.6,0,1.1-0.5,1.1-1.1v-1.2"/>
		<line class="st15" x1="183.5" y1="142.6" x2="209.5" y2="142.6"/>
		<path class="st28" d="M199,133.1v-8.4c0-1.6,1.3-2.8,2.8-2.8c0.7,0,1.5,0.3,2,0.8c0.5,0.5,0.8,1.2,0.8,2v8.4"/>
	</g>
	<path class="st13" d="M188.4,100.6l11.2-5.6c0,0,1.8,0.9,6.9,3.8v6.3l-18.1,1.5V100.6z"/>
	<path class="st54" d="M188.4,100.6l5.1-0.3c0,0,0,1.3,0,1.9c0,0.3-0.1,1.1,0.9,1.1c1,0,1-1,1-1s0-0.9,0-1.2c0-0.3,0.2-0.8,1-0.7
		c1.3,0.1,0.2,2.5,1.5,2.5c1,0,1.1-0.5,1.1-1.2c0-0.3,0-0.8,0-1.1c0-0.3,0.1-0.8,0.9-0.9c0.8-0.1,0.8,0.5,1,0.8
		c0.1,0.3,0.4,0.6,1,0.5c0.9-0.2,1-1.6,1-1.6l3.6-0.4"/>
	<path class="st41" d="M191.3,100.8l7.6-3.7c0,0,1.2,0.6,4.7,2.6v4.3l-12.3,1V100.8z"/>
	<path class="st3" d="M203.4,99.5l-4.4-2.5l-7.1,3.5l-0.5,0.3l3.5-0.2c0,0,0,0.9,0,1.3c0,0.2-0.1,0.7,0.6,0.7c0.7,0,0.7-0.7,0.7-0.7
		s0-0.6,0-0.8c0-0.2,0.1-0.5,0.7-0.5c0.9,0.1,0.1,1.7,1,1.7c0.7,0,0.7-0.3,0.7-0.8c0-0.2,0-0.5,0-0.8c0-0.2,0.1-0.6,0.6-0.6
		c0.5-0.1,0.6,0.3,0.6,0.5c0.1,0.2,0.3,0.4,0.7,0.3c0.6-0.1,0.7-1.1,0.7-1.1L203.4,99.5L203.4,99.5z"/>
	
		<ellipse transform="matrix(0.1562 -0.9877 0.9877 0.1562 -64.3045 453.0837)" class="st28" cx="233" cy="264.2" rx="4.3" ry="4.3"/>
	
		<ellipse transform="matrix(0.1562 -0.9877 0.9877 0.1562 -52.1015 461.7271)" class="st28" cx="244.2" cy="261.4" rx="4.3" ry="4.3"/>
	<path class="st28" d="M239.4,252.1c3.6-2-2-5.8,4.7-7.6c2.3-0.7,3.3-6.7-2.6-6.6c0,0-10.3,0.5-8.7,10.6
		C233,250.3,234.6,254.8,239.4,252.1z"/>
	<path class="st28" d="M262.7,252.5c-1.9-3.7-5.8,1.7-7.4-5c-0.6-2.3-6.6-3.6-6.8,2.4c0,0,0.1,10.3,10.2,9.2
		C260.6,258.9,265.2,257.5,262.7,252.5z"/>
</g>
<g id="Capa_2">
</g>
</svg>
