<?xml version="1.0" encoding="utf-8"?>
<!-- Generator: Adobe Illustrator 22.0.1, SVG Export Plug-In . SVG Version: 6.00 Build 0)  -->
<svg version="1.1" id="Layer_1" xmlns="http://www.w3.org/2000/svg" xmlns:xlink="http://www.w3.org/1999/xlink" x="0px" y="0px"
	 viewBox="0 0 400 400" style="enable-background:new 0 0 400 400;" xml:space="preserve">
<style type="text/css">
	.st0{fill:#8CBAA3;stroke:#232323;stroke-width:6;stroke-linecap:round;stroke-linejoin:round;stroke-miterlimit:10;}
	.st1{fill:none;stroke:#009EE5;stroke-width:6;stroke-linecap:round;stroke-linejoin:round;stroke-miterlimit:10;}
	.st2{fill:#8CBAA3;}
	.st3{fill:none;stroke:#232323;stroke-width:6;stroke-linecap:round;stroke-linejoin:round;stroke-miterlimit:10;}
	.st4{fill:#009EE5;}
	
		.st5{fill:none;stroke:#009EE5;stroke-width:6;stroke-linecap:round;stroke-linejoin:round;stroke-miterlimit:10;stroke-dasharray:12;}
	.st6{fill:none;stroke:#009EE5;stroke-width:6;stroke-linecap:round;stroke-linejoin:round;}
	.st7{fill:none;stroke:#009EE5;stroke-width:6;stroke-linecap:round;stroke-linejoin:round;stroke-dasharray:10.9827,12.8132;}
	.st8{fill:none;stroke:#009EE5;stroke-width:6;stroke-linecap:round;stroke-linejoin:round;stroke-dasharray:11.7505,13.7089;}
	.st9{fill:none;stroke:#009EE5;stroke-width:6;stroke-linecap:round;stroke-linejoin:round;stroke-dasharray:10.9714,12.8;}
	.st10{fill:none;stroke:#009EE5;stroke-width:6;stroke-linecap:round;stroke-linejoin:round;stroke-dasharray:9.7939,9.7939;}
	.st11{fill:none;stroke:#231F20;stroke-width:6;stroke-linecap:round;stroke-linejoin:round;}
	.st12{fill:none;stroke:#231F20;stroke-width:6;stroke-linecap:round;stroke-linejoin:round;stroke-dasharray:12.2771,12.2771;}
	.st13{fill:#FFFFFF;}
	.st14{fill:none;stroke:#009EE5;stroke-width:6;stroke-linecap:round;stroke-linejoin:round;stroke-dasharray:12.2771,12.2771;}
	.st15{fill:#FFFFFF;stroke:#232323;stroke-width:6;stroke-linecap:round;stroke-linejoin:round;stroke-miterlimit:10;}
	.st16{fill:none;stroke:#8CBAA3;stroke-width:6;stroke-linecap:round;stroke-linejoin:round;stroke-miterlimit:10;}
	.st17{fill:none;stroke:#231F20;stroke-width:6;stroke-linecap:round;stroke-linejoin:round;stroke-miterlimit:10;}
	.st18{fill:none;stroke:#009EE5;stroke-width:6;stroke-linecap:round;stroke-linejoin:round;stroke-dasharray:12.4436,15.5545;}
	.st19{fill:#8CBAA3;stroke:#231F20;stroke-miterlimit:10;}
	.st20{fill:none;stroke:#1E1E1E;stroke-width:6;stroke-linecap:round;stroke-linejoin:round;stroke-miterlimit:10;}
	.st21{fill:#009EE5;stroke:#231F20;stroke-width:6;stroke-linecap:round;stroke-linejoin:round;stroke-miterlimit:10;}
	.st22{fill:#009EE5;stroke:#232323;stroke-width:6;stroke-linecap:round;stroke-linejoin:round;stroke-miterlimit:10;}
	.st23{fill:none;stroke:#B2D1C2;stroke-width:6;stroke-linecap:round;stroke-linejoin:round;stroke-miterlimit:10;}
	.st24{clip-path:url(#SVGID_2_);fill:#8CBAA3;}
	.st25{clip-path:url(#SVGID_2_);}
	
		.st26{clip-path:url(#SVGID_2_);fill:none;stroke:#232323;stroke-width:6;stroke-linecap:round;stroke-linejoin:round;stroke-miterlimit:10;}
	.st27{fill:#231F20;}
	.st28{fill:none;stroke:#231F20;stroke-width:6;stroke-linecap:round;stroke-linejoin:round;stroke-dasharray:12.2664,12.2664;}
	.st29{fill:none;stroke:#009EE5;stroke-width:6;stroke-linecap:round;stroke-linejoin:round;stroke-dasharray:12.2664,12.2664;}
	.st30{fill:#232323;}
</style>
<path class="st4" d="M105.4,286.7c5.9,2.8,12.5,4,19.2,3.5c9.8-0.8,18.7-5.3,25.2-12.6l30-0.1c-10.2,21.9-30.3,36.8-53.1,38.6
	c-12.7,1-25.1-1.7-36-7.7L105.4,286.7z"/>
<g>
	<path class="st3" d="M257.9,277.4h44.2l11.8,0.1c7.9,0,14.3-6.4,14.3-14.3c0-7.9-6.4-14.3-14.3-14.3h-20.9H168.8"/>
</g>
<g>
	<path class="st3" d="M148.1,277.4h-2.4v0.1c-7.9,0-14.3-6.4-14.3-14.3c0-7.9,6.4-14.3,14.3-14.3h9.2h35"/>
</g>
<g>
	<path class="st3" d="M149.8,277.6c-6.5,7.3-15.4,11.8-25.2,12.6c-10.1,0.8-19.8-2.3-27.5-8.9c-4.4-3.8-10.7-4-15.4-1.1
		c-1.1,0.7-2.1,1.5-3,2.6c-4.6,5.5-4,13.7,1.5,18.3c13,11,29.5,16.3,46.5,15c22.8-1.9,42.9-16.8,53.1-38.6"/>
</g>
<path class="st2" d="M83.5,277.2c-10.8,0-19.7-8.8-19.8-19.7v-0.1c0-4.9,1.8-9.6,5.1-13.2l0.6-0.7l0.9,0.3c1.5,0.5,4.5,2.1,7.7,6.8
	c3.9,5.7,6.8,14,8.7,24.8l0.3,1.7L83.5,277.2z"/>
<g>
	<path class="st3" d="M121,257.5c0,10.7-8.5,19.6-19.2,19.9"/>
	<path class="st3" d="M101.8,277.4l-18.5,0c-10.8,0-19.6-8.7-19.6-19.5l0-0.5c0-10.8,8.7-19.6,19.5-19.6l17.9-0.1
		c10.9,0,19.8,8.8,19.9,19.7"/>
</g>
<path class="st3" d="M69.5,243.6c0,0,12.5,1.1,17.8,33.7"/>
<polyline class="st3" points="97,311.3 63.6,311.3 63.6,277.4 149.8,277.4 "/>
<polyline class="st3" points="179.8,277.4 336.2,277.4 336.2,311.3 145.8,311.3 "/>
<line class="st3" x1="96.9" y1="313.5" x2="96.9" y2="337.3"/>
<line class="st3" x1="302.9" y1="311.3" x2="302.9" y2="337.3"/>
<line class="st3" x1="235" y1="260.4" x2="235" y2="277.5"/>
<polyline class="st3" points="108.1,97 135.2,97 108.1,130.5 135.2,130.5 "/>
<polyline class="st3" points="62.6,63.7 97.3,63.7 62.6,106.5 97.3,106.5 "/>
<path class="st15" d="M336.4,97.2c0,18.5-15,33.5-33.5,33.5c-18.5,0-33.5-15-33.5-33.5c0-18.5,15-33.5,33.5-33.5
	C321.4,63.7,336.4,78.7,336.4,97.2z"/>
<line class="st1" x1="302.9" y1="97.2" x2="317.1" y2="87.6"/>
<line class="st3" x1="302.9" y1="97.2" x2="313.9" y2="115.5"/>
</svg>
