<?xml version="1.0" encoding="utf-8"?>
<!-- Generator: Adobe Illustrator 21.0.2, SVG Export Plug-In . SVG Version: 6.00 Build 0)  -->
<svg version="1.1" id="Layer_1" xmlns="http://www.w3.org/2000/svg" xmlns:xlink="http://www.w3.org/1999/xlink" x="0px" y="0px"
	 width="394.8px" height="394.8px" viewBox="0 0 394.8 394.8" style="enable-background:new 0 0 394.8 394.8;" xml:space="preserve"
	>
<style type="text/css">
	.st0{fill:#8CBAA3;}
	.st1{fill:none;stroke:#232323;stroke-width:6;stroke-linecap:round;stroke-linejoin:round;stroke-miterlimit:10;}
	.st2{fill:#009EE5;}
	.st3{fill:none;stroke:#231F20;stroke-width:6;stroke-linecap:round;stroke-linejoin:round;stroke-miterlimit:10;}
	.st4{fill:#FFFFFF;}
	.st5{fill:#8CBAA3;stroke:#232323;stroke-width:6;stroke-linecap:round;stroke-linejoin:round;stroke-miterlimit:10;}
	.st6{fill:#009EE5;stroke:#232323;stroke-width:6;stroke-linecap:round;stroke-linejoin:round;stroke-miterlimit:10;}
	.st7{fill:none;stroke:#8AB9A1;stroke-width:6;stroke-linecap:round;stroke-linejoin:round;stroke-miterlimit:10;}
	.st8{fill:none;stroke:#1E1E1E;stroke-width:6;stroke-linecap:round;stroke-linejoin:round;stroke-miterlimit:10;}
	.st9{fill:#D9E8E0;}
	.st10{fill:none;stroke:#1E1E1E;stroke-width:5.9319;stroke-linecap:round;stroke-linejoin:round;stroke-miterlimit:10;}
	.st11{fill:#FFFFFF;stroke:#1E1E1E;stroke-width:6;stroke-linecap:round;stroke-linejoin:round;stroke-miterlimit:10;}
	.st12{fill:#8CBAA3;stroke:#1E1E1E;stroke-width:6;stroke-linecap:round;stroke-linejoin:round;stroke-miterlimit:10;}
	.st13{fill:#009EE5;stroke:#1E1E1E;stroke-width:6;stroke-linecap:round;stroke-linejoin:round;stroke-miterlimit:10;}
	.st14{fill:none;stroke:#009EE5;stroke-width:6;stroke-linecap:round;stroke-linejoin:round;stroke-miterlimit:10;}
	.st15{fill:none;stroke:#8CBAA3;stroke-width:6;stroke-linecap:round;stroke-linejoin:round;stroke-miterlimit:10;}
	.st16{fill:#E5F0EB;stroke:#232323;stroke-width:6;stroke-linecap:round;stroke-linejoin:round;stroke-miterlimit:10;}
	.st17{fill:#FFFFFF;stroke:#232323;stroke-width:6;stroke-linecap:round;stroke-linejoin:round;stroke-miterlimit:10;}
	.st18{fill:url(#SVGID_1_);stroke:#231F20;stroke-width:6;stroke-miterlimit:10;}
	.st19{fill:#8CBAA3;stroke:#231F20;stroke-width:6;stroke-miterlimit:10;}
	.st20{fill:#CCE0D6;}
	.st21{fill:none;stroke:#222222;stroke-width:6;stroke-linecap:round;stroke-linejoin:round;stroke-miterlimit:10;}
	.st22{fill:#B2D1C2;}
	.st23{fill:#232323;}
	.st24{fill:none;stroke:#B2D1C2;stroke-width:6;stroke-linecap:round;stroke-linejoin:round;stroke-miterlimit:10;}
	.st25{opacity:0;clip-path:url(#SVGID_3_);fill-rule:evenodd;clip-rule:evenodd;fill:#FFFFFF;}
	.st26{fill:none;stroke:#000000;stroke-width:6;stroke-linecap:round;stroke-linejoin:round;}
	.st27{fill:#94BFA9;}
	.st28{stroke:#231F20;stroke-width:2;stroke-miterlimit:10;}
	.st29{fill:#B2E2F7;}
	.st30{fill:none;stroke:#282828;stroke-width:6;stroke-linecap:round;stroke-linejoin:round;stroke-miterlimit:10;}
	.st31{fill:#009EE5;stroke:#282828;stroke-width:6;stroke-linecap:round;stroke-linejoin:round;stroke-miterlimit:10;}
	.st32{fill:none;stroke:#282828;stroke-width:5.6034;stroke-linecap:round;stroke-linejoin:round;stroke-miterlimit:10;}
	.st33{fill:#99D8F5;stroke:#231F20;stroke-width:6;stroke-miterlimit:10;}
	.st34{fill:none;stroke:#231F20;stroke-width:6;stroke-miterlimit:10;}
	.st35{fill:#FFFFFF;stroke:#282828;stroke-width:6;stroke-linecap:round;stroke-linejoin:round;stroke-miterlimit:10;}
	.st36{fill:#A1DBF5;}
	.st37{fill:#D6E7DE;stroke:#1E1E1E;stroke-width:6;stroke-linecap:round;stroke-linejoin:round;stroke-miterlimit:10;}
	.st38{fill:#CCECFA;}
	.st39{fill:none;stroke:#8CBAA3;stroke-width:6;stroke-miterlimit:10;}
	.st40{fill:#B0E1F7;}
	.st41{fill:none;stroke:#282828;stroke-width:5;stroke-linecap:round;stroke-linejoin:round;stroke-miterlimit:10;}
	.st42{fill:#C9DFD4;stroke:#918F8F;stroke-width:6;stroke-linecap:round;stroke-linejoin:round;stroke-miterlimit:10;}
	.st43{clip-path:url(#SVGID_5_);fill:#FFFFFF;}
	.st44{clip-path:url(#SVGID_5_);fill:#009EE5;stroke:#231F20;stroke-width:6;stroke-miterlimit:10;}
	.st45{fill:#05A0E6;}
	.st46{fill:url(#SVGID_6_);stroke:#231F20;stroke-width:6;stroke-miterlimit:10;}
	.st47{fill:url(#SVGID_7_);stroke:#231F20;stroke-width:6;stroke-miterlimit:10;}
	.st48{fill:none;stroke:#1A171B;stroke-width:6;stroke-linecap:round;stroke-linejoin:round;stroke-miterlimit:10;}
	.st49{fill:#D1E3DA;}
	.st50{fill:#8CBAA3;stroke:#231F20;stroke-width:6;stroke-linecap:round;stroke-linejoin:round;stroke-miterlimit:10;}
	.st51{fill:#8AD2F3;}
	.st52{fill:none;stroke:#1D1D1B;stroke-width:6;stroke-linecap:round;stroke-linejoin:round;stroke-miterlimit:10;}
</style>
<path class="st0" d="M212.9,144.4L101,94.1c0,0-8.2,12.9,0,23c8.2,10.1,59.1,58.3,59.1,58.3"/>
<path class="st1" d="M233.6,191.7l16.3-9.7l12.9-7.6l0,0l38.7-22.7c17.6-10.3,18.7-38-5.8-48.6"/>
<path class="st1" d="M233.6,191.7l-92.1,54.9l-12.3,7.2l-1.1,0.6c-4,2.3-8.5,3.5-13,3.6c-2.3,0-4.6-0.3-6.8-0.8
	c-3.4-0.9-6.5-2.4-9.2-4.5c-0.3-0.3-0.7-0.5-1-0.8c-2.3-1.9-4.2-4.2-5.8-6.8l-24.2-37.6"/>
<path class="st1" d="M276.4,105.8l-40,23.4l-12.9,7.6l-12.5,7.6L99,94.1c0,0-8.2,12.9,0,23c8.2,10.1,59.1,58.3,59.1,58.3L94.7,213
	l-5.9-8.2c-4.4-7.5-16.2-8-20.7,2.5"/>
<line class="st14" x1="281.7" y1="145.3" x2="261.2" y2="157.3"/>
<line class="st14" x1="253" y1="162.1" x2="248.8" y2="164.6"/>
<g>
	<path class="st30" d="M216.5,265.8c-1.1-8.2,1-16.8,6.5-23.9c10.9-14.1,31.2-16.8,45.3-5.8c2.6,2,4.8,4.4,6.7,6.9"/>
	<path class="st30" d="M274.9,243.1c0.8-1.4,1.7-2.8,2.8-4.1c12.1-15.7,34.6-18.6,50.3-6.5c9.8,7.6,14.6,19.2,13.9,30.7"/>
	<path class="st30" d="M333.8,298.7c0,0-14,17.4-51.1,17.4c-37.1,0-46.7-17-46.7-17c-25.4,11.9-42.8-0.6-53.9-17.8"/>
	<path class="st32" d="M333.8,298.7c10.3,0,18.7-8.4,18.7-18.7c0-7.4-4.4-13.9-10.7-16.9"/>
</g>
</svg>
